<svg width="32" height="32" viewBox="0 0 32 32" fill="none" xmlns="http://www.w3.org/2000/svg">
  <path d="M8 6C6 6 5 7 5 9V13C5 15 4 16 2 16C4 16 5 17 5 19V23C5 25 6 26 8 26" stroke="#10b981" stroke-width="2" stroke-linecap="round" stroke-linejoin="round"/>
  <path d="M24 6C26 6 27 7 27 9V13C27 15 28 16 30 16C28 16 27 17 27 19V23C27 25 26 26 24 26" stroke="#10b981" stroke-width="2" stroke-linecap="round" stroke-linejoin="round"/>
  <text x="16" y="21" font-family="Georgia, serif" font-size="16" font-style="italic" fill="#fafafa" text-anchor="middle">r</text>
</svg>
